<svg width="224" height="190" viewBox="0 0 224 190" fill="none" xmlns="http://www.w3.org/2000/svg">
<path d="M146.497 29.8233C150.413 29.8233 154.329 30.3129 158.081 31.292C158.897 29.6601 159.386 27.7018 159.386 25.9067C159.386 20.8478 152.86 8.28199 149.108 1.59112C147.965 -0.530374 145.192 -0.530374 144.05 1.59112C140.297 8.28199 133.771 20.8478 133.771 25.9067C133.771 27.865 134.26 29.8233 135.076 31.292C138.502 30.3129 142.418 29.8233 146.497 29.8233Z" fill="url(#paint0_linear_13_36)"/>
<path d="M100.815 50.0592C102.283 51.528 103.915 52.3439 105.546 52.9967C109.625 46.3058 115.173 40.5941 121.862 36.6775C121.209 34.8824 120.23 33.2505 118.762 31.9449C115.173 28.3547 101.63 24.1117 94.2884 21.9902C92.0042 21.3375 90.0463 23.4589 90.6989 25.5804C92.9831 32.9241 97.2252 46.469 100.815 50.0592Z" fill="url(#paint1_linear_13_36)"/>
<path d="M100.326 89.0625C99.3473 85.3091 98.8579 81.5557 98.8579 77.4759C98.8579 73.5593 99.3473 69.6427 100.326 65.8892C98.6947 65.0733 96.7368 64.5837 94.7789 64.5837C89.721 64.5837 77.1579 71.1114 70.4684 74.8648C68.5105 76.0071 68.5105 78.7814 70.4684 79.9237C77.1579 83.6771 89.721 90.2048 94.7789 90.2048C96.7368 90.368 98.6947 89.8784 100.326 89.0625Z" fill="url(#paint2_linear_13_36)"/>
<path d="M105.712 101.955C103.917 102.607 102.286 103.587 100.981 104.892C97.3911 108.482 93.149 122.027 91.028 129.371C90.3753 131.492 92.4964 133.614 94.6175 132.961C101.96 130.84 115.502 126.76 119.091 123.006C120.56 121.538 121.539 119.906 122.191 118.274C115.339 114.357 109.628 108.646 105.712 101.955Z" fill="url(#paint3_linear_13_36)"/>
<path d="M146.502 125.127C142.586 125.127 138.67 124.637 134.917 123.658C134.102 125.29 133.612 127.248 133.612 129.043C133.612 134.102 140.138 146.668 143.891 153.359C145.033 155.48 147.807 155.48 148.949 153.359C152.702 146.668 159.228 134.102 159.228 129.043C159.228 127.085 158.738 125.127 157.923 123.658C154.333 124.637 150.417 125.127 146.502 125.127Z" fill="url(#paint4_linear_13_36)"/>
<path d="M192.018 104.892C190.712 103.587 189.081 102.607 187.286 101.955C183.37 108.646 177.66 114.357 170.97 118.274C171.46 120.069 172.602 121.701 173.907 123.006C177.497 126.597 191.039 130.84 198.381 132.961C200.665 133.614 202.623 131.492 201.97 129.371C199.849 122.027 195.77 108.482 192.018 104.892Z" fill="url(#paint5_linear_13_36)"/>
<path d="M222.532 75.0271C215.842 71.2737 203.279 64.746 198.221 64.746C196.263 64.746 194.305 65.2356 192.837 66.0515C193.816 69.8049 194.305 73.7215 194.305 77.6382C194.305 81.5548 193.816 85.4714 192.837 89.2248C194.469 90.0407 196.426 90.5303 198.221 90.5303C203.279 90.5303 215.842 84.0026 222.532 80.2492C224.49 78.9437 224.49 76.0062 222.532 75.0271Z" fill="url(#paint6_linear_13_36)"/>
<path d="M187.286 52.9967C189.081 52.3439 190.712 51.3648 192.018 50.0592C195.607 46.469 199.849 32.9241 201.97 25.5804C202.623 23.4589 200.665 21.3375 198.381 21.9902C190.875 24.1117 177.497 28.1915 173.907 31.9449C172.602 33.2505 171.46 34.8824 170.97 36.6775C177.66 40.5941 183.37 46.3058 187.286 52.9967Z" fill="url(#paint7_linear_13_36)"/>
<path d="M146.497 114.031C166.682 114.031 183.044 97.6649 183.044 77.4761C183.044 57.2873 166.682 40.9211 146.497 40.9211C126.312 40.9211 109.95 57.2873 109.95 77.4761C109.95 97.6649 126.312 114.031 146.497 114.031Z" fill="url(#paint8_linear_13_36)"/>
<path d="M162.119 154.133C155.408 171.584 132.036 177.891 116.828 164.335C109.91 194.991 66.458 199.789 53.0969 169.979C40.4517 175.126 25.1266 167.914 22.5275 154.133C-6.72206 153.588 -8.163 112.889 22.1684 111.399C19.089 85.5816 47.9189 68.8476 69.1491 86.6647C76.0665 56.0091 119.519 51.2114 132.88 81.0207C143.272 76.5567 156.543 81.4255 161.284 90.8251C163.672 90.3061 166.156 90.0305 168.708 90.0305C215 92.046 213.211 157.705 162.119 154.133Z" fill="url(#paint9_linear_13_36)"/>
<defs>
<linearGradient id="paint0_linear_13_36" x1="135.258" y1="16.6558" x2="159.07" y2="15.8439" gradientUnits="userSpaceOnUse">
<stop stop-color="white"/>
<stop offset="1" stop-color="#FFD145"/>
</linearGradient>
<linearGradient id="paint1_linear_13_36" x1="92.3885" y1="38.4378" x2="121.458" y2="37.2206" gradientUnits="userSpaceOnUse">
<stop stop-color="white"/>
<stop offset="1" stop-color="#FFD145"/>
</linearGradient>
<linearGradient id="paint2_linear_13_36" x1="70.8189" y1="78.2377" x2="99.8973" y2="76.7586" gradientUnits="userSpaceOnUse">
<stop stop-color="white"/>
<stop offset="1" stop-color="#FFD145"/>
</linearGradient>
<linearGradient id="paint3_linear_13_36" x1="92.7243" y1="118.522" x2="121.787" y2="117.306" gradientUnits="userSpaceOnUse">
<stop stop-color="white"/>
<stop offset="1" stop-color="#FFD145"/>
</linearGradient>
<linearGradient id="paint4_linear_13_36" x1="135.1" y1="140.314" x2="158.911" y2="139.502" gradientUnits="userSpaceOnUse">
<stop stop-color="white"/>
<stop offset="1" stop-color="#FFD145"/>
</linearGradient>
<linearGradient id="paint5_linear_13_36" x1="172.778" y1="118.522" x2="201.696" y2="117.318" gradientUnits="userSpaceOnUse">
<stop stop-color="white"/>
<stop offset="1" stop-color="#FFD145"/>
</linearGradient>
<linearGradient id="paint6_linear_13_36" x1="194.647" y1="78.4702" x2="223.575" y2="77.0139" gradientUnits="userSpaceOnUse">
<stop stop-color="white"/>
<stop offset="1" stop-color="#FFD145"/>
</linearGradient>
<linearGradient id="paint7_linear_13_36" x1="172.778" y1="38.4378" x2="201.696" y2="37.2332" gradientUnits="userSpaceOnUse">
<stop stop-color="white"/>
<stop offset="1" stop-color="#FFD145"/>
</linearGradient>
<linearGradient id="paint8_linear_13_36" x1="114.194" y1="79.8352" x2="182.101" y2="77.0073" gradientUnits="userSpaceOnUse">
<stop stop-color="white"/>
<stop offset="1" stop-color="#FFD145"/>
</linearGradient>
<linearGradient id="paint9_linear_13_36" x1="198" y1="99" x2="-143.5" y2="212.5" gradientUnits="userSpaceOnUse">
<stop stop-color="white"/>
<stop offset="1" stop-color="#999999"/>
</linearGradient>
</defs>
</svg>
