<svg width="202" height="129" viewBox="0 0 202 129" fill="none" xmlns="http://www.w3.org/2000/svg">
<path d="M162.119 93.1325C155.408 110.584 132.036 116.891 116.828 103.335C109.91 133.991 66.458 138.789 53.0969 108.979C40.4517 114.126 25.1266 106.914 22.5275 93.1325C-6.72206 92.5877 -8.163 51.8887 22.1684 50.3985C19.089 24.5816 47.9189 7.8476 69.1491 25.6647C76.0665 -4.99089 119.519 -9.78864 132.88 20.0207C143.272 15.5567 156.543 20.4255 161.284 29.8251C163.672 29.3061 166.156 29.0305 168.708 29.0305C215 31.046 213.211 96.705 162.119 93.1325Z" fill="url(#paint0_linear_13_19)"/>
<defs>
<linearGradient id="paint0_linear_13_19" x1="198" y1="38" x2="-143.5" y2="151.5" gradientUnits="userSpaceOnUse">
<stop stop-color="white"/>
<stop offset="1" stop-color="#999999"/>
</linearGradient>
</defs>
</svg>
