<svg width="91" height="95" viewBox="0 0 91 95" fill="none" xmlns="http://www.w3.org/2000/svg">
<path fill-rule="evenodd" clip-rule="evenodd" d="M0.660161 45.047C0.648443 72.348 22.7732 94.488 50.0742 94.5C65.8367 94.5074 80.6041 86.9998 89.892 74.3875C90.4297 73.6574 89.757 72.6729 88.8661 72.8414C88.3645 72.9363 87.8599 73.0242 87.3519 73.105C84.6019 73.5425 81.8167 73.7651 79.0316 73.7651C49.8716 73.7456 26.2546 50.0891 26.2736 20.9331C26.2775 16.5464 26.8282 12.1753 27.9103 7.92513C28.4412 5.85717 29.0962 3.82719 29.8722 1.84375C30.2031 0.997841 29.3563 0.153294 28.5388 0.549329C11.5536 8.77809 0.660161 26.0272 0.660161 45.047Z" fill="url(#paint0_linear_20_88)"/>
<defs>
<linearGradient id="paint0_linear_20_88" x1="-30.5" y1="79" x2="64" y2="28" gradientUnits="userSpaceOnUse">
<stop stop-color="white"/>
<stop offset="1" stop-color="#FFD145"/>
</linearGradient>
</defs>
</svg>
