<svg width="202" height="176" viewBox="0 0 202 176" fill="none" xmlns="http://www.w3.org/2000/svg">
<path d="M162.119 93.1325C155.408 110.584 132.036 116.891 116.828 103.335C109.91 133.991 66.458 138.789 53.0969 108.979C40.4517 114.126 25.1266 106.914 22.5275 93.1325C-6.72206 92.5877 -8.163 51.8887 22.1684 50.3985C19.089 24.5816 47.9189 7.8476 69.1491 25.6647C76.0665 -4.99089 119.519 -9.78864 132.88 20.0207C143.272 15.5567 156.543 20.4255 161.284 29.8251C163.672 29.3061 166.156 29.0305 168.708 29.0305C215 31.046 213.211 96.705 162.119 93.1325Z" fill="url(#paint0_linear_18_67)"/>
<path d="M111.208 166.35C111.208 162.713 107.02 156.294 103.512 151.566C103.216 151.202 102.836 150.907 102.4 150.704C101.965 150.501 101.486 150.396 101 150.396C100.514 150.396 100.035 150.501 99.5998 150.704C99.1642 150.907 98.7837 151.202 98.4878 151.566C94.9797 156.294 90.7926 162.713 90.7926 166.35C90.7926 168.91 91.868 171.364 93.7823 173.174C95.6966 174.983 98.2929 176 101 176C103.707 176 106.304 174.983 108.218 173.174C110.132 171.364 111.208 168.91 111.208 166.35Z" fill="url(#paint1_linear_18_67)"/>
<path d="M161 166.35C161 162.713 156.813 156.294 153.305 151.566C153.009 151.202 152.628 150.907 152.193 150.704C151.757 150.501 151.278 150.396 150.793 150.396C150.307 150.396 149.828 150.501 149.392 150.704C148.957 150.907 148.576 151.202 148.28 151.566C144.772 156.294 140.585 162.713 140.585 166.35C140.585 168.91 141.661 171.364 143.575 173.174C145.489 174.983 148.085 176 150.793 176C153.5 176 156.096 174.983 158.01 173.174C159.925 171.364 161 168.91 161 166.35Z" fill="url(#paint2_linear_18_67)"/>
<path d="M136.104 144.955C136.104 141.317 131.917 134.898 128.409 130.17C128.113 129.806 127.732 129.511 127.297 129.308C126.861 129.106 126.382 129 125.896 129C125.411 129 124.932 129.106 124.496 129.308C124.06 129.511 123.68 129.806 123.384 130.17C119.876 134.898 115.689 141.317 115.689 144.955C115.689 147.514 116.764 149.968 118.679 151.778C120.593 153.587 123.189 154.604 125.896 154.604C128.603 154.604 131.2 153.587 133.114 151.778C135.028 149.968 136.104 147.514 136.104 144.955Z" fill="url(#paint3_linear_18_67)"/>
<path d="M61.4149 166.35C61.4149 162.713 57.2278 156.294 53.7197 151.566C53.4238 151.202 53.0434 150.907 52.6078 150.704C52.1722 150.501 51.6931 150.396 51.2075 150.396C50.7219 150.396 50.2428 150.501 49.8072 150.704C49.3716 150.907 48.9911 151.202 48.6952 151.566C45.1871 156.294 41 162.713 41 166.35C41 167.618 41.264 168.872 41.777 170.043C42.29 171.214 43.0418 172.278 43.9897 173.174C44.9376 174.07 46.0628 174.781 47.3012 175.265C48.5397 175.75 49.867 176 51.2075 176C52.5479 176 53.8753 175.75 55.1137 175.265C56.3521 174.781 57.4774 174.07 58.4252 173.174C59.3731 172.278 60.125 171.214 60.6379 170.043C61.1509 168.872 61.4149 167.618 61.4149 166.35Z" fill="url(#paint4_linear_18_67)"/>
<path d="M76.1037 154.604C78.8107 154.604 81.4067 153.587 83.3208 151.777C85.235 149.968 86.3106 147.514 86.3112 144.955C86.3112 141.317 82.1241 134.898 78.616 130.17C78.32 129.806 77.9396 129.511 77.504 129.308C77.0684 129.106 76.5893 129 76.1037 129C75.6181 129 75.139 129.106 74.7034 129.308C74.2678 129.511 73.8874 129.806 73.5914 130.17C70.0833 134.898 65.8962 141.317 65.8962 144.955C65.8968 147.514 66.9725 149.968 68.8866 151.777C70.8007 153.587 73.3967 154.604 76.1037 154.604Z" fill="url(#paint5_linear_18_67)"/>
<defs>
<linearGradient id="paint0_linear_18_67" x1="198" y1="38" x2="-137" y2="129" gradientUnits="userSpaceOnUse">
<stop stop-color="white"/>
<stop offset="1" stop-color="#999999"/>
</linearGradient>
<linearGradient id="paint1_linear_18_67" x1="106.189" y1="150.668" x2="88.6105" y2="153.429" gradientUnits="userSpaceOnUse">
<stop stop-color="#80C3EA"/>
<stop offset="1" stop-color="white"/>
</linearGradient>
<linearGradient id="paint2_linear_18_67" x1="155.981" y1="150.668" x2="138.403" y2="153.429" gradientUnits="userSpaceOnUse">
<stop stop-color="#80C3EA"/>
<stop offset="1" stop-color="white"/>
</linearGradient>
<linearGradient id="paint3_linear_18_67" x1="131.085" y1="129.272" x2="113.507" y2="132.033" gradientUnits="userSpaceOnUse">
<stop stop-color="#80C3EA"/>
<stop offset="1" stop-color="white"/>
</linearGradient>
<linearGradient id="paint4_linear_18_67" x1="56.3963" y1="150.668" x2="38.8179" y2="153.429" gradientUnits="userSpaceOnUse">
<stop stop-color="#80C3EA"/>
<stop offset="1" stop-color="white"/>
</linearGradient>
<linearGradient id="paint5_linear_18_67" x1="81.2925" y1="129.272" x2="63.7141" y2="132.033" gradientUnits="userSpaceOnUse">
<stop stop-color="#80C3EA"/>
<stop offset="1" stop-color="white"/>
</linearGradient>
</defs>
</svg>
