<svg width="202" height="168" viewBox="0 0 202 168" fill="none" xmlns="http://www.w3.org/2000/svg">
<path d="M162.118 93.1325C155.408 110.584 132.036 116.891 116.828 103.335C109.91 133.991 66.458 138.789 53.0969 108.979C40.4517 114.126 25.1266 106.914 22.5275 93.1325C-6.72206 92.5877 -8.163 51.8887 22.1684 50.3985C19.089 24.5816 47.9189 7.8476 69.1491 25.6647C76.0665 -4.99089 119.519 -9.78864 132.88 20.0207C143.272 15.5567 156.543 20.4255 161.284 29.8251C163.672 29.3061 166.156 29.0305 168.708 29.0305C215 31.046 213.211 96.705 162.118 93.1325Z" fill="url(#paint0_linear_18_86)"/>
<path d="M76.9258 158.04L73.5938 156.173L76.7813 154.059C77.9922 153.255 78.3243 151.622 77.5196 150.411C76.7149 149.2 75.0821 148.868 73.8712 149.673L71.3751 151.325L71.3946 148.219C71.4024 146.766 70.2305 145.583 68.7774 145.571H68.7618C67.3165 145.571 66.1407 146.739 66.129 148.188L66.1056 151.973L62.7384 150.083C61.4728 149.372 59.8673 149.825 59.1564 151.091C58.4454 152.36 58.8986 153.962 60.1642 154.673L63.4962 156.54L60.3087 158.653C59.0978 159.458 58.7657 161.091 59.5704 162.302C60.0782 163.067 61.4688 163.755 63.2188 163.04L66.0547 161.161L66.0352 164.493C66.0273 165.946 67.1993 167.13 68.6524 167.141H68.668C70.1133 167.141 71.2891 165.973 71.3008 164.524L71.3203 160.926L74.3515 162.626C76.3906 163.34 77.4531 162.477 77.9335 161.618C78.6445 160.356 78.1953 158.751 76.9258 158.04Z" fill="url(#paint1_linear_18_86)"/>
<path d="M111.258 144.469L107.926 142.602L111.113 140.488C112.324 139.684 112.656 138.051 111.852 136.84C111.047 135.629 109.414 135.297 108.203 136.102L105.707 137.754L105.727 134.648C105.734 133.195 104.562 132.012 103.109 132H103.094C101.648 132 100.473 133.168 100.461 134.617L100.437 138.402L97.0664 136.512C95.8008 135.801 94.1953 136.254 93.4844 137.52C92.7734 138.789 93.2266 140.391 94.4922 141.102L97.8242 142.969L94.6367 145.082C93.4258 145.887 93.0937 147.52 93.8984 148.73C94.4062 149.496 95.7812 150.203 97.5468 149.469L100.383 147.59L100.363 150.922C100.355 152.375 101.527 153.559 102.98 153.57H102.996C104.441 153.57 105.617 152.402 105.629 150.953L105.648 147.355L108.68 149.055C110.465 149.746 111.781 148.906 112.262 148.047C112.976 146.781 112.527 145.18 111.258 144.469Z" fill="url(#paint2_linear_18_86)"/>
<path d="M142.11 157.469L138.778 155.602L141.965 153.488C143.176 152.684 143.508 151.051 142.704 149.84C141.899 148.629 140.266 148.297 139.055 149.102L136.559 150.754L136.579 147.648C136.586 146.195 135.414 145.012 133.961 145H133.946C132.5 145 131.325 146.168 131.313 147.617L131.29 151.402L127.918 149.512C126.653 148.801 125.047 149.254 124.336 150.52C123.625 151.789 124.079 153.391 125.344 154.102L128.676 155.969L125.489 158.082C124.278 158.887 123.946 160.52 124.75 161.73C125.258 162.496 126.633 163.203 128.399 162.469L131.235 160.59L131.215 163.922C131.207 165.375 132.379 166.559 133.832 166.57H133.848C135.293 166.57 136.469 165.402 136.481 163.953L136.5 160.355L139.532 162.055C141.317 162.746 142.633 161.906 143.114 161.047C143.828 159.781 143.379 158.18 142.11 157.469Z" fill="url(#paint3_linear_18_86)"/>
<path d="M173.11 144.469L169.778 142.602L172.965 140.488C174.176 139.684 174.508 138.051 173.704 136.84C172.899 135.629 171.266 135.297 170.055 136.102L167.559 137.754L167.579 134.648C167.586 133.195 166.414 132.012 164.961 132H164.946C163.5 132 162.325 133.168 162.313 134.617L162.29 138.402L158.918 136.512C157.653 135.801 156.047 136.254 155.336 137.52C154.625 138.789 155.079 140.391 156.344 141.102L159.676 142.969L156.489 145.082C155.278 145.887 154.946 147.52 155.75 148.73C156.258 149.496 157.633 150.203 159.399 149.469L162.235 147.59L162.215 150.922C162.207 152.375 163.379 153.559 164.832 153.57H164.848C166.293 153.57 167.469 152.402 167.481 150.953L167.5 147.355L170.532 149.055C172.317 149.746 173.633 148.906 174.114 148.047C174.828 146.781 174.379 145.18 173.11 144.469Z" fill="url(#paint4_linear_18_86)"/>
<path d="M42.1098 145.418L38.7778 143.551L41.9653 141.437C43.1762 140.633 43.5083 139 42.7036 137.789C41.8989 136.578 40.2661 136.246 39.0552 137.051L36.5591 138.703L36.5786 135.597C36.5864 134.144 35.4145 132.961 33.9614 132.949H33.9458C32.5005 132.949 31.3247 134.117 31.313 135.566L31.2895 139.351L27.9184 137.461C26.6528 136.75 25.0473 137.203 24.3364 138.469C23.6255 139.738 24.0786 141.34 25.3442 142.051L28.6762 143.918L25.4887 146.031C24.2778 146.836 23.9457 148.469 24.7504 149.68C25.2583 150.445 26.6332 151.437 28.3988 150.418L31.2347 148.539L31.2152 151.871C31.2074 153.324 32.3793 154.508 33.8324 154.519H33.848C35.2933 154.519 36.4691 153.351 36.4808 151.902L36.5004 148.304L39.5316 150.004C41.098 150.851 42.6332 149.855 43.1136 148.996C43.8284 147.734 43.3793 146.129 42.1098 145.418Z" fill="url(#paint5_linear_18_86)"/>
<defs>
<linearGradient id="paint0_linear_18_86" x1="198" y1="38" x2="-75.5" y2="118" gradientUnits="userSpaceOnUse">
<stop stop-color="white"/>
<stop offset="0.46551" stop-color="white"/>
<stop offset="1" stop-color="#999999"/>
</linearGradient>
<linearGradient id="paint1_linear_18_86" x1="60.3713" y1="196.211" x2="87.2988" y2="192.339" gradientUnits="userSpaceOnUse">
<stop stop-color="white"/>
<stop offset="1" stop-color="#80C3EA"/>
</linearGradient>
<linearGradient id="paint2_linear_18_86" x1="94.6995" y1="182.64" x2="121.631" y2="178.767" gradientUnits="userSpaceOnUse">
<stop stop-color="white"/>
<stop offset="1" stop-color="#80C3EA"/>
</linearGradient>
<linearGradient id="paint3_linear_18_86" x1="125.552" y1="195.64" x2="152.483" y2="191.767" gradientUnits="userSpaceOnUse">
<stop stop-color="white"/>
<stop offset="1" stop-color="#80C3EA"/>
</linearGradient>
<linearGradient id="paint4_linear_18_86" x1="156.552" y1="182.64" x2="183.483" y2="178.767" gradientUnits="userSpaceOnUse">
<stop stop-color="white"/>
<stop offset="1" stop-color="#80C3EA"/>
</linearGradient>
<linearGradient id="paint5_linear_18_86" x1="25.5516" y1="183.589" x2="52.4826" y2="179.716" gradientUnits="userSpaceOnUse">
<stop stop-color="white"/>
<stop offset="1" stop-color="#80C3EA"/>
</linearGradient>
</defs>
</svg>
