<svg width="156" height="156" viewBox="0 0 156 156" fill="none" xmlns="http://www.w3.org/2000/svg">
<path d="M77.997 30.3483C81.9128 30.3483 85.8286 30.8379 89.5812 31.817C90.397 30.1851 90.8865 28.2268 90.8865 26.4317C90.8865 21.3728 84.3602 8.80698 80.6076 2.11611C79.4655 -0.00537965 76.6918 -0.00537965 75.5497 2.11611C71.7971 8.80698 65.2708 21.3728 65.2708 26.4317C65.2708 28.39 65.7602 30.3483 66.576 31.817C70.0023 30.8379 73.9181 30.3483 77.997 30.3483Z" fill="url(#paint0_linear_11_4)"/>
<path d="M32.3147 50.5842C33.7831 52.0529 35.4147 52.8689 37.0463 53.5217C41.1252 46.8308 46.6726 41.1191 53.3621 37.2025C52.7094 35.4074 51.7305 33.7755 50.2621 32.4699C46.6726 28.8797 33.1305 24.6367 25.7884 22.5152C23.5042 21.8624 21.5463 23.9839 22.1989 26.1054C24.4831 33.4491 28.7252 46.994 32.3147 50.5842Z" fill="url(#paint1_linear_11_4)"/>
<path d="M31.8263 89.5875C30.8473 85.8341 30.3579 82.0806 30.3579 78.0009C30.3579 74.0843 30.8473 70.1677 31.8263 66.4142C30.1947 65.5983 28.2368 65.1087 26.2789 65.1087C21.221 65.1087 8.65788 71.6364 1.96842 75.3898C0.0105269 76.5321 0.0105269 79.3064 1.96842 80.4487C8.65788 84.2021 21.221 90.7298 26.2789 90.7298C28.2368 90.893 30.1947 90.4034 31.8263 89.5875Z" fill="url(#paint2_linear_11_4)"/>
<path d="M37.2122 102.48C35.4175 103.132 33.7859 104.112 32.4806 105.417C28.8911 109.007 24.649 122.552 22.528 129.896C21.8753 132.017 23.9964 134.139 26.1175 133.486C33.4596 131.365 47.0017 127.285 50.5912 123.531C52.0596 122.063 53.0385 120.431 53.6911 118.799C46.8385 114.882 41.128 109.171 37.2122 102.48Z" fill="url(#paint3_linear_11_4)"/>
<path d="M78.0016 125.651C74.0859 125.651 70.1701 125.162 66.4174 124.183C65.6017 125.815 65.1122 127.773 65.1122 129.568C65.1122 134.627 71.6385 147.193 75.3911 153.884C76.5332 156.005 79.3069 156.005 80.449 153.884C84.2016 147.193 90.7279 134.627 90.7279 129.568C90.7279 127.61 90.2384 125.652 89.4227 124.183C85.8332 125.162 81.9174 125.651 78.0016 125.651Z" fill="url(#paint4_linear_11_4)"/>
<path d="M123.518 105.417C122.212 104.112 120.581 103.132 118.786 102.48C114.87 109.171 109.16 114.882 102.47 118.799C102.96 120.594 104.102 122.226 105.407 123.531C108.997 127.122 122.539 131.365 129.881 133.486C132.165 134.139 134.123 132.017 133.47 129.896C131.349 122.552 127.27 109.007 123.518 105.417Z" fill="url(#paint5_linear_11_4)"/>
<path d="M154.032 75.5521C147.342 71.7987 134.779 65.271 129.721 65.271C127.763 65.271 125.805 65.7606 124.337 66.5765C125.316 70.3299 125.805 74.2465 125.805 78.1631C125.805 82.0797 125.316 85.9964 124.337 89.7498C125.969 90.5657 127.926 91.0553 129.721 91.0553C134.779 91.0553 147.342 84.5276 154.032 80.7742C155.99 79.4687 155.99 76.5312 154.032 75.5521Z" fill="url(#paint6_linear_11_4)"/>
<path d="M118.786 53.5217C120.581 52.8689 122.212 51.8898 123.518 50.5842C127.107 46.994 131.349 33.4491 133.47 26.1054C134.123 23.9839 132.165 21.8624 129.881 22.5152C122.375 24.6367 108.997 28.7165 105.407 32.4699C104.102 33.7755 102.96 35.4074 102.47 37.2025C109.16 41.1191 114.87 46.8308 118.786 53.5217Z" fill="url(#paint7_linear_11_4)"/>
<path d="M77.997 114.556C98.1816 114.556 114.544 98.1899 114.544 78.0011C114.544 57.8123 98.1816 41.4461 77.997 41.4461C57.8124 41.4461 41.4496 57.8123 41.4496 78.0011C41.4496 98.1899 57.8124 114.556 77.997 114.556Z" fill="url(#paint8_linear_11_4)"/>
<defs>
<linearGradient id="paint0_linear_11_4" x1="66.7581" y1="17.1808" x2="90.5696" y2="16.3689" gradientUnits="userSpaceOnUse">
<stop stop-color="white"/>
<stop offset="1" stop-color="#FFD145"/>
</linearGradient>
<linearGradient id="paint1_linear_11_4" x1="23.8885" y1="38.9628" x2="52.9578" y2="37.7456" gradientUnits="userSpaceOnUse">
<stop stop-color="white"/>
<stop offset="1" stop-color="#FFD145"/>
</linearGradient>
<linearGradient id="paint2_linear_11_4" x1="2.31894" y1="78.7627" x2="31.3973" y2="77.2835" gradientUnits="userSpaceOnUse">
<stop stop-color="white"/>
<stop offset="1" stop-color="#FFD145"/>
</linearGradient>
<linearGradient id="paint3_linear_11_4" x1="24.2243" y1="119.047" x2="53.287" y2="117.831" gradientUnits="userSpaceOnUse">
<stop stop-color="white"/>
<stop offset="1" stop-color="#FFD145"/>
</linearGradient>
<linearGradient id="paint4_linear_11_4" x1="66.5995" y1="140.839" x2="90.411" y2="140.027" gradientUnits="userSpaceOnUse">
<stop stop-color="white"/>
<stop offset="1" stop-color="#FFD145"/>
</linearGradient>
<linearGradient id="paint5_linear_11_4" x1="104.278" y1="119.047" x2="133.196" y2="117.843" gradientUnits="userSpaceOnUse">
<stop stop-color="white"/>
<stop offset="1" stop-color="#FFD145"/>
</linearGradient>
<linearGradient id="paint6_linear_11_4" x1="126.147" y1="78.9952" x2="155.075" y2="77.5388" gradientUnits="userSpaceOnUse">
<stop stop-color="white"/>
<stop offset="1" stop-color="#FFD145"/>
</linearGradient>
<linearGradient id="paint7_linear_11_4" x1="104.278" y1="38.9628" x2="133.196" y2="37.7582" gradientUnits="userSpaceOnUse">
<stop stop-color="white"/>
<stop offset="1" stop-color="#FFD145"/>
</linearGradient>
<linearGradient id="paint8_linear_11_4" x1="45.6938" y1="80.3602" x2="113.601" y2="77.5323" gradientUnits="userSpaceOnUse">
<stop stop-color="white"/>
<stop offset="1" stop-color="#FFD145"/>
</linearGradient>
</defs>
</svg>
