<svg width="21" height="26" viewBox="0 0 21 26" fill="none" xmlns="http://www.w3.org/2000/svg">
<path d="M20.4149 15.9546C20.4149 12.3173 16.2278 5.89849 12.7197 1.17C12.4238 0.806038 12.0434 0.511237 11.6078 0.308372C11.1722 0.105508 10.6931 0 10.2075 0C9.72188 0 9.24279 0.105508 8.80719 0.308372C8.37159 0.511237 7.99113 0.806038 7.69521 1.17C4.1871 5.89849 0 12.3173 0 15.9546C-1.99745e-08 17.2218 0.264025 18.4765 0.776998 19.6473C1.28997 20.818 2.04185 21.8818 2.9897 22.7778C3.93755 23.6739 5.06281 24.3846 6.30124 24.8696C7.53967 25.3545 8.86701 25.6041 10.2075 25.6041C11.5479 25.6041 12.8753 25.3545 14.1137 24.8696C15.3521 24.3846 16.4774 23.6739 17.4252 22.7778C18.3731 21.8818 19.125 20.818 19.6379 19.6473C20.1509 18.4765 20.4149 17.2218 20.4149 15.9546Z" fill="white"/>
</svg>
