<svg width="76" height="76" viewBox="0 0 76 76" fill="none" xmlns="http://www.w3.org/2000/svg">
<path d="M40.082 54.668H2.582C1.4297 54.668 0.5 55.6016 0.5 56.75C0.5 57.9023 1.43359 58.832 2.582 58.832H40.082C43.5273 58.832 46.332 61.6367 46.332 65.082C46.332 68.5273 43.5273 71.332 40.082 71.332H35.914C34.7617 71.332 33.832 72.2656 33.832 73.414C33.832 74.5663 34.7656 75.496 35.914 75.496H40.082C45.8281 75.496 50.5 70.8241 50.5 65.078C50.5 59.3397 45.8281 54.668 40.082 54.668Z" fill="white"/>
<path d="M60.918 42.168H2.582C1.4297 42.168 0.5 43.1016 0.5 44.25C0.5 45.4023 1.43359 46.332 2.582 46.332H60.914C66.6601 46.332 71.332 51.0039 71.332 56.75C71.332 62.4961 66.6601 67.168 60.914 67.168C59.7617 67.168 58.832 68.1016 58.832 69.25C58.832 70.4023 59.7656 71.332 60.914 71.332C68.9531 71.332 75.496 64.789 75.496 56.75C75.4999 48.7109 68.9569 42.168 60.918 42.168Z" fill="white"/>
<path d="M2.582 21.332H40.082C45.8281 21.332 50.5 16.6601 50.5 10.914C50.5 5.1718 45.8281 0.5 40.082 0.5H35.914C34.7617 0.5 33.832 1.43359 33.832 2.582C33.832 3.7343 34.7656 4.664 35.914 4.664H40.082C43.5273 4.664 46.332 7.4687 46.332 10.914C46.332 14.3593 43.5273 17.164 40.082 17.164H2.582C1.4297 17.164 0.5 18.0976 0.5 19.246C0.5 20.4022 1.43359 21.332 2.582 21.332Z" fill="white"/>
<path d="M2.582 33.832H60.914C68.9531 33.832 75.496 27.289 75.496 19.25C75.496 11.211 68.953 4.668 60.914 4.668C59.7617 4.668 58.832 5.60159 58.832 6.75C58.832 7.9023 59.7656 8.832 60.914 8.832C66.6601 8.832 71.332 13.5039 71.332 19.25C71.332 24.9922 66.6601 29.668 60.914 29.668H2.582C1.4297 29.668 0.5 30.6016 0.5 31.75C0.5 32.9023 1.43359 33.832 2.582 33.832Z" fill="white"/>
</svg>
