<svg width="84" height="72" viewBox="0 0 84 72" fill="none" xmlns="http://www.w3.org/2000/svg">
<path d="M60.7499 4.83201C65.5468 4.83201 70.3476 6.66401 74.0079 10.3242C81.3282 17.6445 81.3282 29.5192 74.0079 36.8402L41.9999 67.3322L9.99195 36.8402C2.67165 29.5199 2.67165 17.6452 9.99195 10.3242C13.6521 6.66401 18.4528 4.83201 23.2499 4.83201C25.3476 4.83201 27.4491 5.18357 29.453 5.88281C32.8046 7.05471 35.6874 9.27731 37.8788 12.0703L41.9999 17.332L46.121 12.0703C48.3085 9.27731 51.1952 7.05471 54.5468 5.88281C56.5507 5.18359 58.6484 4.83201 60.7499 4.83201ZM60.7499 0.667908C58.1601 0.667908 55.6093 1.1015 53.1718 1.95311C49.1952 3.34371 45.6249 5.95311 42.8438 9.50391L42.0001 10.5781L41.1563 9.50391C38.3751 5.95311 34.8047 3.34371 30.8283 1.95311C28.3908 1.10155 25.84 0.667908 23.2502 0.667908C17.1291 0.667908 11.3752 3.05071 7.04725 7.37881C-1.88635 16.3124 -1.88635 30.8518 7.04725 39.7888L39.1252 70.3508C39.9299 71.1164 40.965 71.4992 42.0002 71.4992C43.0354 71.4992 44.0705 71.1164 44.8752 70.3508L76.8832 39.8588C85.891 30.851 85.891 16.3158 76.9536 7.37881C72.6255 3.05071 66.8709 0.667908 60.7499 0.667908Z" fill="#FFD145"/>
</svg>
