<svg width="83" height="67" viewBox="0 0 83 67" fill="none" xmlns="http://www.w3.org/2000/svg">
<path d="M55.999 10.3838C57.3632 10.3838 58.7274 10.5542 60.0348 10.8952C60.319 10.327 60.4895 9.64513 60.4895 9.02012C60.4895 7.25871 58.2158 2.8836 56.9084 0.553991C56.5106 -0.184664 55.5442 -0.184664 55.1463 0.553991C53.839 2.8836 51.5653 7.25871 51.5653 9.02012C51.5653 9.70195 51.7358 10.3838 52.02 10.8952C53.2137 10.5542 54.5779 10.3838 55.999 10.3838Z" fill="#ffff"/>
<path d="M40.0838 17.4295C40.5954 17.9408 41.1638 18.2249 41.7322 18.4522C43.1533 16.1226 45.0859 14.1339 47.4164 12.7703C47.1891 12.1452 46.848 11.577 46.3364 11.1225C45.0859 9.87246 40.368 8.39515 37.8101 7.65649C37.0143 7.42921 36.3322 8.16787 36.5596 8.90653C37.3554 11.4634 38.8333 16.1794 40.0838 17.4295Z" fill="#ffff"/>
<path d="M39.9137 31.0095C39.5726 29.7026 39.4021 28.3958 39.4021 26.9753C39.4021 25.6116 39.5726 24.248 39.9137 22.9411C39.3452 22.657 38.6631 22.4866 37.981 22.4866C36.2189 22.4866 31.8421 24.7593 29.5116 26.0662C28.8295 26.4639 28.8295 27.4299 29.5116 27.8276C31.8421 29.1344 36.2189 31.4072 37.981 31.4072C38.6631 31.4641 39.3452 31.2936 39.9137 31.0095Z" fill="#ffff"/>
<path d="M41.7901 35.4983C41.1648 35.7255 40.5964 36.0665 40.1417 36.521C38.8911 37.771 37.4132 42.4871 36.6743 45.044C36.4469 45.7826 37.1859 46.5213 37.9248 46.294C40.4827 45.5553 45.2006 44.1348 46.4511 42.828C46.9627 42.3166 47.3038 41.7484 47.5311 41.1802C45.1438 39.8166 43.1543 37.8279 41.7901 35.4983Z" fill="#1E1E1E"/>
<path d="M56.0005 43.5662C54.6363 43.5662 53.2721 43.3957 51.9647 43.0548C51.6805 43.623 51.51 44.3048 51.51 44.9298C51.51 46.6912 53.7837 51.0663 55.0911 53.3959C55.4889 54.1346 56.4553 54.1346 56.8532 53.3959C58.1605 51.0663 60.4342 46.6912 60.4342 44.9298C60.4342 44.248 60.2637 43.5662 59.9795 43.0548C58.7289 43.3957 57.3647 43.5662 56.0005 43.5662Z" fill="#ffff"/>
<path d="M71.8577 36.521C71.4029 36.0665 70.8345 35.7255 70.2092 35.4983C68.845 37.8279 66.8555 39.8166 64.525 41.1802C64.6956 41.8052 65.0934 42.3734 65.5482 42.828C66.7987 44.078 71.5166 45.5553 74.0745 46.294C74.8703 46.5213 75.5524 45.7826 75.325 45.044C74.5861 42.4871 73.165 37.771 71.8577 36.521Z" fill="#ffff"/>
<path d="M82.4884 26.1227C80.1579 24.8158 75.7811 22.5431 74.019 22.5431C73.3369 22.5431 72.6548 22.7135 72.1432 22.9976C72.4842 24.3045 72.6548 25.6681 72.6548 27.0318C72.6548 28.3955 72.4842 29.7592 72.1432 31.066C72.7116 31.3501 73.3937 31.5206 74.019 31.5206C75.7811 31.5206 80.1579 29.2478 82.4884 27.9409C83.1705 27.4864 83.1705 26.4636 82.4884 26.1227Z" fill="#ffff"/>
<path d="M70.2092 18.4522C70.8345 18.2249 71.4029 17.884 71.8577 17.4295C73.1082 16.1794 74.5861 11.4634 75.325 8.90653C75.5524 8.16787 74.8703 7.42921 74.0745 7.65649C71.4598 8.39515 66.7987 9.81564 65.5482 11.1225C65.0934 11.577 64.6956 12.1452 64.525 12.7703C66.8555 14.1339 68.845 16.1226 70.2092 18.4522Z" fill="#ffff"/>
<path d="M55.9989 39.703C63.0309 39.703 68.7315 34.0046 68.7315 26.9754C68.7315 19.9461 63.0309 14.2478 55.9989 14.2478C48.9668 14.2478 43.2662 19.9461 43.2662 26.9754C43.2662 34.0046 48.9668 39.703 55.9989 39.703Z" fill="#ffff"/>
<path d="M57.7848 53.654C55.3928 60.1474 47.0624 62.4943 41.6416 57.4503C39.176 68.8571 23.688 70.6423 18.9256 59.5504C14.4184 61.4654 8.95602 58.782 8.02962 53.654C-2.39598 53.4512 -2.90958 38.3074 7.90162 37.7529C6.80402 28.1466 17.08 21.92 24.6472 28.5497C27.1128 17.1429 42.6008 15.3577 47.3632 26.4496C51.0672 24.7886 55.7976 26.6002 57.4872 30.0977C58.3384 29.9046 59.224 29.802 60.1336 29.802C76.6336 30.552 75.996 54.9833 57.7848 53.654Z" fill="#ffff"/>
</svg>
